<?xml version="1.0" standalone="no"?>
<!DOCTYPE svg PUBLIC "-//W3C//DTD SVG 20010904//EN"
 "http://www.w3.org/TR/2001/REC-SVG-20010904/DTD/svg10.dtd">
<svg version="1.0" xmlns="http://www.w3.org/2000/svg"
 width="289.000000pt" height="175.000000pt" viewBox="0 0 289.000000 175.000000"
 preserveAspectRatio="xMidYMid meet">

<g transform="translate(0.000000,175.000000) scale(0.100000,-0.100000)"
fill="#000000" stroke="none">
<path d="M0 875 l0 -875 1445 0 1445 0 0 875 0 875 -1445 0 -1445 0 0 -875z
m1560 575 c0 -6 -82 -10 -226 -10 -147 0 -223 3 -219 10 4 6 90 10 226 10 139
0 219 -4 219 -10z m-424 -61 c14 -22 -24 -29 -176 -29 -85 0 -162 -5 -170 -10
-11 -7 -16 -35 -18 -120 -3 -86 -7 -110 -18 -110 -11 0 -14 23 -14 115 0 110
1 117 25 140 24 25 27 25 194 25 114 0 172 -4 177 -11z m1001 -4 c30 -21 41
-66 37 -155 -4 -82 -8 -100 -24 -100 -6 0 -10 37 -10 98 0 53 -5 104 -10 112
-8 13 -56 16 -302 20 -269 5 -293 6 -296 23 -3 16 16 17 290 17 247 0 297 -2
315 -15z m-1032 -95 c23 -11 51 -33 62 -49 49 -66 52 -173 7 -243 -17 -26 -22
-45 -18 -66 4 -20 1 -34 -11 -45 -23 -24 -48 -21 -75 8 -16 17 -34 25 -57 25
-39 0 -103 24 -103 39 0 14 10 13 40 -4 14 -8 42 -14 64 -15 26 0 48 -8 69
-26 27 -23 31 -24 46 -9 13 13 14 19 3 36 -12 18 -11 24 9 45 49 52 55 184 11
243 -65 88 -205 78 -264 -21 -22 -35 -26 -126 -8 -172 6 -16 8 -31 6 -33 -21
-21 -52 88 -41 145 24 131 146 197 260 142z m217 3 c15 -14 18 -32 18 -117 0
-116 12 -146 60 -146 51 0 60 20 60 137 0 85 3 110 17 125 20 22 41 23 65 1
16 -14 18 -33 18 -137 0 -129 -4 -143 -57 -193 -74 -71 -216 -35 -254 64 -12
33 -12 153 1 153 6 0 10 -28 10 -65 0 -110 48 -167 141 -167 56 0 91 18 120
65 17 28 19 47 17 152 l-3 120 -25 0 c-25 0 -25 0 -28 -110 -1 -60 -7 -120
-13 -132 -15 -28 -62 -45 -93 -33 -46 17 -56 46 -56 162 0 98 -2 107 -20 113
-28 9 -40 -2 -40 -36 0 -16 -4 -29 -10 -29 -16 0 -11 52 7 72 20 22 41 23 65
1z m372 1 c13 -13 16 -44 16 -179 0 -164 0 -165 -25 -181 -23 -15 -27 -15 -50
0 -19 12 -25 25 -25 51 0 44 18 46 22 3 2 -28 7 -33 28 -33 l25 0 3 162 c2
154 2 162 -18 168 -11 3 -24 3 -30 0 -6 -4 -10 -53 -10 -116 0 -66 -4 -109
-10 -109 -6 0 -10 42 -10 107 0 85 3 110 17 125 20 22 46 23 67 2z m362 -9
c22 -33 16 -45 -76 -160 l-72 -90 65 -3 c74 -3 104 -24 93 -65 -8 -34 -26 -39
-148 -42 -132 -3 -157 1 -170 30 -12 27 4 60 61 125 56 63 60 45 6 -25 -25
-31 -45 -68 -45 -81 l0 -24 130 0 c115 0 130 2 139 18 16 31 -7 42 -84 42 -40
0 -75 3 -78 6 -3 4 15 33 41 66 124 156 132 169 122 189 -10 17 -23 19 -135
19 -110 0 -125 -2 -134 -18 -18 -34 3 -46 83 -50 42 -2 76 -7 76 -11 0 -3 -11
-19 -25 -36 -18 -22 -24 -26 -25 -13 0 9 5 20 10 23 25 15 5 23 -56 21 -54 -1
-68 2 -80 18 -19 27 -18 42 6 66 18 18 33 20 150 20 128 0 130 0 146 -25z
m-1008 -61 c35 -10 26 -23 -12 -17 -49 8 -86 -30 -86 -87 0 -69 24 -100 75
-100 55 1 70 22 70 100 0 54 3 66 12 58 19 -15 16 -109 -3 -137 -24 -34 -71
-51 -106 -39 -45 16 -68 53 -68 110 0 59 11 83 48 102 31 17 38 18 70 10z
m1182 -224 c0 -100 -4 -160 -10 -160 -6 0 -10 60 -10 160 0 100 4 160 10 160
6 0 10 -60 10 -160z m-1520 -121 c0 -252 -1 -270 -17 -267 -17 3 -18 25 -21
258 -1 140 0 260 3 267 2 7 11 13 20 13 13 0 15 -34 15 -271z m1460 -235 c0
-270 -2 -274 -129 -274 l-68 0 -48 -51 -48 -51 -49 49 -49 48 -149 3 c-195 4
-188 22 8 22 l146 0 46 -45 46 -45 47 45 c48 45 48 45 121 45 53 0 77 4 86 15
9 11 13 71 15 208 2 239 3 250 15 242 6 -4 10 -85 10 -211z m-1026 180 c19
-18 21 -55 4 -72 -7 -7 -31 -12 -55 -12 -42 0 -43 0 -43 -35 0 -24 -5 -35 -15
-35 -11 0 -15 12 -15 49 l0 50 52 3 c31 2 53 8 56 16 3 10 -25 12 -130 10 -82
-2 -132 -7 -131 -13 2 -5 27 -11 58 -13 l54 -3 3 -147 c3 -123 5 -147 18 -147
12 0 16 18 20 78 3 42 10 78 15 80 14 3 18 -148 5 -173 -14 -27 -65 -27 -80
-1 -5 11 -10 78 -10 150 l0 131 -50 0 c-38 0 -52 4 -60 19 -14 27 -13 47 6 65
23 23 275 23 298 0z m144 -6 c18 -18 16 -337 -2 -360 -31 -42 -90 -5 -84 54 4
41 21 43 28 3 3 -18 12 -31 23 -33 16 -3 17 8 15 155 -3 133 -5 158 -18 158
-12 0 -16 -20 -18 -112 -2 -91 -5 -113 -17 -113 -12 0 -15 20 -15 111 0 61 5
119 10 130 12 22 59 26 78 7z m169 -33 c23 -40 26 -69 8 -68 -5 0 -19 18 -30
39 -11 22 -27 39 -35 39 -13 0 -15 -24 -15 -155 0 -139 2 -155 18 -158 15 -3
17 6 17 87 0 69 3 91 13 91 8 0 33 -40 58 -90 27 -57 49 -90 59 -90 11 0 31
32 58 91 52 115 66 114 70 -4 2 -68 6 -87 17 -87 13 0 15 26 15 160 0 123 -3
160 -13 160 -7 0 -40 -56 -75 -125 -34 -69 -66 -125 -71 -125 -11 0 -71 107
-71 127 0 28 27 11 46 -29 l21 -42 58 112 57 113 37 -3 c33 -3 36 -6 43 -43 4
-22 7 -99 7 -170 1 -103 -2 -135 -15 -153 -35 -51 -100 -7 -92 63 5 41 2 39
-32 -22 -46 -85 -74 -84 -125 8 l-30 54 -5 -53 c-6 -53 -19 -72 -52 -72 -42 0
-48 23 -48 191 0 182 5 202 53 197 25 -2 36 -11 54 -43z m594 35 c22 -12 26
-59 7 -78 -7 -7 -42 -12 -85 -12 -66 0 -73 -2 -73 -20 0 -17 8 -19 66 -22 77
-3 95 -18 78 -65 -9 -26 -13 -28 -77 -31 -59 -3 -67 -5 -67 -22 0 -18 7 -20
66 -20 80 0 104 -11 104 -48 0 -46 -15 -52 -136 -52 -130 0 -140 6 -135 83 2
31 30 19 33 -15 l3 -33 99 0 c69 0 101 4 103 12 3 9 -20 13 -84 15 l-88 3 -3
51 c-3 50 -2 51 29 58 17 3 54 6 81 6 35 0 48 4 46 13 -3 8 -31 13 -82 15
l-77 3 3 47 3 47 88 3 c68 2 87 6 87 17 0 12 -20 15 -105 15 l-105 0 0 -106
c0 -95 -2 -105 -17 -102 -16 3 -18 15 -15 113 2 88 6 113 19 123 21 15 206 17
234 2z m-1281 -295 c0 -81 3 -107 16 -119 13 -13 44 -16 180 -16 103 0 164 -4
164 -10 0 -13 -325 -13 -350 0 -11 6 -24 27 -30 48 -11 40 -14 195 -4 205 17
17 24 -13 24 -108z m735 -215 c0 -13 -29 -15 -194 -18 -111 -1 -199 2 -204 7
-26 26 9 31 201 29 167 -3 197 -5 197 -18z"/>
</g>
</svg>
